HIERARCHY
ROOT Hips
{
  OFFSET 5.72205e-005 65.662 3.42586
  CHANNELS 6 Xposition Yposition Zposition Zrotation Xrotation Yrotation
  JOINT Chest
  {
    OFFSET 0 8.7983 -4.7612
    CHANNELS 6 Xposition Yposition Zposition Zrotation Xrotation Yrotation
    JOINT Chest2
    {
      OFFSET 0 8.0291 0.4195
      CHANNELS 6 Xposition Yposition Zposition Zrotation Xrotation Yrotation
      JOINT Chest3
      {
        OFFSET 0 9.9351 -2.2114
        CHANNELS 6 Xposition Yposition Zposition Zrotation Xrotation Yrotation
        JOINT Neck
        {
          OFFSET 0 22.3885 -0.4656
          CHANNELS 6 Xposition Yposition Zposition Zrotation Xrotation Yrotation
          JOINT Head
          {
            OFFSET -0.0001 12.643 3.4389
            CHANNELS 6 Xposition Yposition Zposition Zrotation Xrotation Yrotation
            End Site
            {
              OFFSET 0.0001 17.6655 0.5274
            }
          }
        }
        JOINT LeftCollar
        {
          OFFSET 2.2603 21.606 7.4023
          CHANNELS 6 Xposition Yposition Zposition Zrotation Xrotation Yrotation
          JOINT LeftShoulder
          {
            OFFSET 13.5163 -1.1332 -5.0146
            CHANNELS 6 Xposition Yposition Zposition Zrotation Xrotation Yrotation
            JOINT LeftElbow
            {
              OFFSET -0.0995 -28.05 -0.2431
              CHANNELS 6 Xposition Yposition Zposition Zrotation Xrotation Yrotation
              JOINT LeftWrist
              {
                OFFSET 0.0679 -23.3996 -0.1402
                CHANNELS 6 Xposition Yposition Zposition Zrotation Xrotation Yrotation
                JOINT LeftFinger1
                {
                  OFFSET 0.7932 -9.069 2.5189
                  CHANNELS 6 Xposition Yposition Zposition Zrotation Xrotation Yrotation
                  JOINT LeftFinger11
                  {
                    OFFSET -0.8272 -3.3923 0.5977
                    CHANNELS 6 Xposition Yposition Zposition Zrotation Xrotation Yrotation
                    JOINT LeftFinger12
                    {
                      OFFSET -0.5649 -2.3158 0.4082
                      CHANNELS 6 Xposition Yposition Zposition Zrotation Xrotation Yrotation
                      End Site
                      {
                        OFFSET -0.4919 -1.6479 0.2673
                      }
                    }
                  }
                }
                JOINT LeftFinger2
                {
                  OFFSET 0.9159 -9.2044 0.2193
                  CHANNELS 6 Xposition Yposition Zposition Zrotation Xrotation Yrotation
                  JOINT LeftFinger21
                  {
                    OFFSET 0.0117 -4.1944 -0.0248
                    CHANNELS 6 Xposition Yposition Zposition Zrotation Xrotation Yrotation
                    JOINT LeftFinger22
                    {
                      OFFSET 0.0071 -2.3249 -0.0142
                      CHANNELS 6 Xposition Yposition Zposition Zrotation Xrotation Yrotation
                      End Site
                      {
                        OFFSET -0.1475 -2.0882 0.0028
                      }
                    }
                  }
                }
                JOINT LeftFinger3
                {
                  OFFSET 0.6113 -8.7231 -2.0637
                  CHANNELS 6 Xposition Yposition Zposition Zrotation Xrotation Yrotation
                  JOINT LeftFinger31
                  {
                    OFFSET -0.1927 -3.8059 -0.2383
                    CHANNELS 6 Xposition Yposition Zposition Zrotation Xrotation Yrotation
                    JOINT LeftFinger32
                    {
                      OFFSET -0.1091 -2.1688 -0.1362
                      CHANNELS 6 Xposition Yposition Zposition Zrotation Xrotation Yrotation
                      End Site
                      {
                        OFFSET -0.2358 -1.9176 -0.0906
                      }
                    }
                  }
                }
                JOINT LeftFinger4
                {
                  OFFSET -0.6151 -8.0947 -3.5641
                  CHANNELS 6 Xposition Yposition Zposition Zrotation Xrotation Yrotation
                  JOINT LeftFinger41
                  {
                    OFFSET -0.4882 -2.341 -0.6462
                    CHANNELS 6 Xposition Yposition Zposition Zrotation Xrotation Yrotation
                    JOINT LeftFinger42
                    {
                      OFFSET -0.3575 -1.7167 -0.4742
                      CHANNELS 6 Xposition Yposition Zposition Zrotation Xrotation Yrotation
                      End Site
                      {
                        OFFSET -0.4187 -1.5237 -0.3496
                      }
                    }
                  }
                }
                JOINT LeftFinger0
                {
                  OFFSET -1.42 -1.8761 1.4223
                  CHANNELS 6 Xposition Yposition Zposition Zrotation Xrotation Yrotation
                  JOINT LeftFinger01
                  {
                    OFFSET -1.1471 -3.4929 2.6334
                    CHANNELS 6 Xposition Yposition Zposition Zrotation Xrotation Yrotation
                    JOINT LeftFinger02
                    {
                      OFFSET -0.823 -2.3 1.6571
                      CHANNELS 6 Xposition Yposition Zposition Zrotation Xrotation Yrotation
                      End Site
                      {
                        OFFSET -0.5822 -1.6914 1.1582
                      }
                    }
                  }
                }
              }
            }
          }
        }
        JOINT RightCollar
        {
          OFFSET -2.2603 21.606 7.4023
          CHANNELS 6 Xposition Yposition Zposition Zrotation Xrotation Yrotation
          JOINT RightShoulder
          {
            OFFSET -13.5187 -1.1334 -5.0155
            CHANNELS 6 Xposition Yposition Zposition Zrotation Xrotation Yrotation
            JOINT RightElbow
            {
              OFFSET 0.0994 -28.0499 -0.2431
              CHANNELS 6 Xposition Yposition Zposition Zrotation Xrotation Yrotation
              JOINT RightWrist
              {
                OFFSET -0.0679 -23.3996 -0.1402
                CHANNELS 6 Xposition Yposition Zposition Zrotation Xrotation Yrotation
                JOINT RightFinger1
                {
                  OFFSET -0.7932 -9.0691 2.5189
                  CHANNELS 6 Xposition Yposition Zposition Zrotation Xrotation Yrotation
                  JOINT RightFinger11
                  {
                    OFFSET 0.8272 -3.3923 0.5977
                    CHANNELS 6 Xposition Yposition Zposition Zrotation Xrotation Yrotation
                    JOINT RightFinger12
                    {
                      OFFSET 0.565 -2.3158 0.4082
                      CHANNELS 6 Xposition Yposition Zposition Zrotation Xrotation Yrotation
                      End Site
                      {
                        OFFSET 0.4919 -1.6479 0.2673
                      }
                    }
                  }
                }
                JOINT RightFinger2
                {
                  OFFSET -0.916 -9.2044 0.2193
                  CHANNELS 6 Xposition Yposition Zposition Zrotation Xrotation Yrotation
                  JOINT RightFinger21
                  {
                    OFFSET -0.0117 -4.1944 -0.0248
                    CHANNELS 6 Xposition Yposition Zposition Zrotation Xrotation Yrotation
                    JOINT RightFinger22
                    {
                      OFFSET -0.0071 -2.3249 -0.0142
                      CHANNELS 6 Xposition Yposition Zposition Zrotation Xrotation Yrotation
                      End Site
                      {
                        OFFSET 0.1475 -2.0882 0.0028
                      }
                    }
                  }
                }
                JOINT RightFinger3
                {
                  OFFSET -0.6113 -8.7231 -2.0637
                  CHANNELS 6 Xposition Yposition Zposition Zrotation Xrotation Yrotation
                  JOINT RightFinger31
                  {
                    OFFSET 0.1927 -3.8059 -0.2383
                    CHANNELS 6 Xposition Yposition Zposition Zrotation Xrotation Yrotation
                    JOINT RightFinger32
                    {
                      OFFSET 0.1091 -2.1688 -0.1362
                      CHANNELS 6 Xposition Yposition Zposition Zrotation Xrotation Yrotation
                      End Site
                      {
                        OFFSET 0.2358 -1.9176 -0.0906
                      }
                    }
                  }
                }
                JOINT RightFinger4
                {
                  OFFSET 0.6151 -8.0947 -3.564
                  CHANNELS 6 Xposition Yposition Zposition Zrotation Xrotation Yrotation
                  JOINT RightFinger41
                  {
                    OFFSET 0.4882 -2.341 -0.6462
                    CHANNELS 6 Xposition Yposition Zposition Zrotation Xrotation Yrotation
                    JOINT RightFinger42
                    {
                      OFFSET 0.3574 -1.7166 -0.4742
                      CHANNELS 6 Xposition Yposition Zposition Zrotation Xrotation Yrotation
                      End Site
                      {
                        OFFSET 0.4187 -1.5237 -0.3496
                      }
                    }
                  }
                }
                JOINT RightFinger0
                {
                  OFFSET 1.4199 -1.8761 1.4221
                  CHANNELS 6 Xposition Yposition Zposition Zrotation Xrotation Yrotation
                  JOINT RightFinger01
                  {
                    OFFSET 1.1472 -3.4929 2.6336
                    CHANNELS 6 Xposition Yposition Zposition Zrotation Xrotation Yrotation
                    JOINT RightFinger02
                    {
                      OFFSET 0.8229 -2.3 1.6571
                      CHANNELS 6 Xposition Yposition Zposition Zrotation Xrotation Yrotation
                      End Site
                      {
                        OFFSET 0.5822 -1.6914 1.1582
                      }
                    }
                  }
                }
              }
            }
          }
        }
      }
    }
  }
  JOINT RightHip
  {
    OFFSET -9.412 3.9771 -0.7758
    CHANNELS 6 Xposition Yposition Zposition Zrotation Xrotation Yrotation
    JOINT RightKnee
    {
      OFFSET -0.7531 -40.938 0
      CHANNELS 6 Xposition Yposition Zposition Zrotation Xrotation Yrotation
      JOINT RightAnkle
      {
        OFFSET 0 -40.1986 0
        CHANNELS 6 Xposition Yposition Zposition Zrotation Xrotation Yrotation
        JOINT RightToe
        {
          OFFSET 0 -4.4182 9.239
          CHANNELS 6 Xposition Yposition Zposition Zrotation Xrotation Yrotation
          End Site
          {
            OFFSET 0 0 6.1981
          }
        }
      }
    }
  }
  JOINT LeftHip
  {
    OFFSET 9.4119 3.9773 -0.7758
    CHANNELS 6 Xposition Yposition Zposition Zrotation Xrotation Yrotation
    JOINT LeftKnee
    {
      OFFSET 0.7532 -40.9383 0
      CHANNELS 6 Xposition Yposition Zposition Zrotation Xrotation Yrotation
      JOINT LeftAnkle
      {
        OFFSET 0 -40.1986 0
        CHANNELS 6 Xposition Yposition Zposition Zrotation Xrotation Yrotation
        JOINT LeftToe
        {
          OFFSET 0 -4.4182 9.239
          CHANNELS 6 Xposition Yposition Zposition Zrotation Xrotation Yrotation
          End Site
          {
            OFFSET 0 0 6.1981
          }
        }
      }
    }
  }
}
MOTION
Frames:	4
Frame Time:	0.0333333
7.5151 12.2657 -21.2223 1.03312e-006 1.06744e-006 -67.0038 0 8.7983 -4.7612 0.0167812 1.94447 0.434126 0 8.0291 0.4195 0.0188243 3.889 0.86851 0 9.9351 -2.2114 0.0188232 3.88899 0.868522 1.77636e-015 22.3885 -0.4656 -5.02825 21.9205 0.774116 -0.0001 12.643 3.4389 0.6487 -4.48803 -0.0126743 2.2603 21.606 7.4023 -6.28337 4.48569 -44.0509 13.5163 -1.1332 -5.0146 75.9823 -17.9305 5.92239 -0.0995 -28.05 -0.2431 -39.8797 -51.913 -28.8186 0.0679 -23.3996 -0.1402 1.33396 1.38642 -31.031 0.7932 -9.069 2.5189 -1.39149e-015 1.59028e-015 -0 -0.8272 -3.3923 0.5977 -1.3418e-015 0 3.97569e-016 -0.5649 -2.3158 0.4082 -1.63997e-015 4.77083e-015 -0 0.9159 -9.2044 0.2193 -1.39149e-015 1.59028e-015 -0 0.0117 -4.1944 -0.0248 -0.0128385 0.00232649 8.87846e-005 0.0071 -2.3249 -0.0142 -7.45443e-015 -1.59028e-015 1.98785e-015 0.6113 -8.7231 -2.0637 -1.39149e-015 1.59028e-015 -0 -0.1927 -3.8059 -0.2383 -0.0160874 0.00300319 0.000861317 -0.1091 -2.1688 -0.1362 -9.28997e-006 -7.20508e-007 8.58452e-007 -0.6151 -8.0947 -3.5641 -1.39149e-015 1.59028e-015 -0 -0.4882 -2.341 -0.6462 -0.0125979 0.00312087 0.00282728 -0.3575 -1.7167 -0.4742 -9.69075e-015 1.59028e-015 -7.95139e-016 -1.42 -1.8761 1.4223 -1.39149e-015 1.59028e-015 -0 -1.1471 -3.4929 2.6334 -1.3418e-015 0 3.97569e-016 -0.823 -2.3 1.6571 -1.63997e-015 4.77083e-015 -0 -2.2603 21.606 7.4023 29.8268 4.00475 22.2785 -13.5187 -1.1334 -5.0155 -118.889 20.6906 -53.9521 0.0994 -28.0499 -0.2431 25.0213 -21.6085 7.87729 -0.0679 -23.3996 -0.1402 -45.6652 2.66446 -22.6466 -0.7932 -9.0691 2.5189 0 0 -0 0.8272 -3.3923 0.5977 -3.18055e-015 -3.18055e-015 7.95139e-016 0.565 -2.3158 0.4082 -1.59028e-015 -3.18055e-015 7.95139e-016 -0.916 -9.2044 0.2193 0 0 -0 -0.0117 -4.1944 -0.0248 0.0129956 0.00233521 -9.73567e-005 -0.0071 -2.3249 -0.0142 1.59028e-015 0 -1.59028e-015 -0.6113 -8.7231 -2.0637 0 0 -0 0.1927 -3.8059 -0.2383 0.0163619 0.00304379 -0.000870595 0.1091 -2.1688 -0.1362 -3.18055e-015 -3.18055e-015 -2.38542e-015 0.6151 -8.0947 -3.564 0 0 -0 0.4882 -2.341 -0.6462 0.0145088 0.0036669 -0.00323949 0.3574 -1.7166 -0.4742 1.59028e-015 0 -0 1.4199 -1.8761 1.4221 0 0 -0 1.1472 -3.4929 2.6336 -3.18055e-015 -3.18055e-015 7.95139e-016 0.8229 -2.3 1.6571 -1.59028e-015 -3.18055e-015 7.95139e-016 -9.412 3.9771 -0.7758 -28.9617 -43.3071 -24.0517 -0.7531 -40.938 -4.44089e-015 -167.327 25.5451 171.619 -7.10543e-015 -40.1986 -1.77636e-015 -9.96416 42.1043 -6.28938 0 -4.4182 9.239 2.53475e-006 1.00036e-006 -3.49854e-006 9.4119 3.9773 -0.7758 58.3195 -17.5631 51.8961 0.7532 -40.9383 0 176.48 21.5651 -172.112 3.55271e-015 -40.1986 0 4.8747 41.5392 9.54669 1.77636e-015 -4.4182 9.239 3.2548e-006 -1.33808e-006 -1.96408e-005 
7.5151 12.2657 -21.2223 -4.95198e-007 -4.23239e-007 -67.0038 0 8.7983 -4.7612 0.0105633 1.94404 0.109865 0 8.0291 0.4195 0.0174072 3.88809 0.219585 0 9.9351 -2.2114 0.0174068 3.88809 0.219591 -3.55271e-015 22.3885 -0.4656 -5.21274 22.6469 0.838718 -0.0001 12.643 3.4389 0.670457 -4.63753 -0.0120889 2.2603 21.606 7.4023 -5.80975 4.39543 -42.5098 13.5163 -1.1332 -5.0146 75.9823 -17.9306 5.9224 -0.0995 -28.05 -0.2431 -41.1504 -52.5839 -29.8605 0.0679 -23.3996 -0.1402 1.43541 1.26481 -31.0214 0.7932 -9.069 2.5189 -1.98785e-016 -4.77083e-015 -7.95139e-016 -0.8272 -3.3923 0.5977 -3.67752e-015 -6.36111e-015 -1.98785e-015 -0.5649 -2.3158 0.4082 5.86415e-015 3.18055e-015 -1.59028e-015 0.9159 -9.2044 0.2193 -1.98785e-016 -4.77083e-015 -7.95139e-016 0.0117 -4.1944 -0.0248 -0.0127795 0.0023172 8.37755e-005 0.0071 -2.3249 -0.0142 3.47873e-015 -2.8625e-014 -7.95139e-016 0.6113 -8.7231 -2.0637 -1.98785e-016 -4.77083e-015 -7.95139e-016 -0.1927 -3.8059 -0.2383 -0.016073 0.00300081 0.000859319 -0.1091 -2.1688 -0.1362 -9.93923e-016 0 -0 -0.6151 -8.0947 -3.5641 -1.98785e-016 -4.77083e-015 -7.95139e-016 -0.4882 -2.341 -0.6462 -0.0125887 0.0031207 0.00282738 -0.3575 -1.7167 -0.4742 -2.28602e-015 1.59028e-015 1.98785e-015 -1.42 -1.8761 1.4223 -1.98785e-016 -4.77083e-015 -7.95139e-016 -1.1471 -3.4929 2.6334 -3.67752e-015 -6.36111e-015 -1.98785e-015 -0.823 -2.3 1.6571 5.86415e-015 3.18055e-015 -1.59028e-015 -2.2603 21.606 7.4023 29.8152 4.03083 22.1231 -13.5187 -1.1334 -5.0155 -122.634 22.3294 -57.0272 0.0994 -28.0499 -0.2431 25.0282 -21.6143 7.87873 -0.0679 -23.3996 -0.1402 -44.8826 2.20656 -22.6358 -0.7932 -9.0691 2.5189 -1.59028e-015 0 -1.59028e-015 0.8272 -3.3923 0.5977 -9.43916e-006 1.58395e-005 -6.95574e-006 0.565 -2.3158 0.4082 -4.77083e-015 6.36111e-015 -0 -0.916 -9.2044 0.2193 -1.59028e-015 0 -1.59028e-015 -0.0117 -4.1944 -0.0248 0.0129826 0.00233418 -8.56391e-005 -0.0071 -2.3249 -0.0142 -3.18055e-015 -6.36111e-015 7.95139e-016 -0.6113 -8.7231 -2.0637 -1.59028e-015 0 -1.59028e-015 0.1927 -3.8059 -0.2383 0.0163747 0.00304892 -0.00087817 0.1091 -2.1688 -0.1362 -3.18055e-015 -6.36111e-015 2.38542e-015 0.6151 -8.0947 -3.564 -1.59028e-015 0 -1.59028e-015 0.4882 -2.341 -0.6462 0.0145252 0.00367119 -0.00325218 0.3574 -1.7166 -0.4742 0 0 -7.95139e-016 1.4199 -1.8761 1.4221 -1.59028e-015 0 -1.59028e-015 1.1472 -3.4929 2.6336 -9.43916e-006 1.58395e-005 -6.95574e-006 0.8229 -2.3 1.6571 -4.77083e-015 6.36111e-015 -0 -9.412 3.9771 -0.7758 -28.9617 -43.3071 -24.0516 -0.7531 -40.938 -1.77636e-015 -167.327 25.5451 171.619 1.42109e-014 -40.1986 -3.55271e-015 -9.96418 42.1042 -6.28938 -3.55271e-015 -4.4182 9.239 2.43621e-006 1.2237e-006 1.94252e-006 9.4119 3.9773 -0.7758 58.3194 -17.563 51.8961 0.7532 -40.9383 -4.44089e-015 176.48 21.5652 -172.112 -1.77636e-015 -40.1986 1.77636e-015 4.87476 41.5392 9.54663 -1.77636e-015 -4.4182 9.239 4.099e-006 -1.23019e-005 -1.52564e-005 
7.5151 12.2657 -21.2223 5.64718e-007 3.41936e-007 -67.0038 3.55271e-015 8.7983 -4.7612 0.0043572 1.94363 -0.214225 0 8.0291 0.4195 0.0160006 3.88723 -0.428896 -3.55271e-015 9.9351 -2.2114 0.0160025 3.88722 -0.428908 -3.55271e-015 22.3885 -0.4656 -5.39893 23.3722 0.906158 -0.0001 12.643 3.4389 0.6922 -4.78701 -0.0114188 2.2603 21.606 7.4023 -5.33521 4.31801 -40.9723 13.5163 -1.1332 -5.0146 75.9823 -17.9306 5.92237 -0.0995 -28.05 -0.2431 -42.4594 -53.2397 -30.9419 0.0679 -23.3996 -0.1402 1.53688 1.14324 -31.0116 0.7932 -9.069 2.5189 -8.94531e-016 3.18055e-015 -1.98785e-015 -0.8272 -3.3923 0.5977 -1.2921e-015 0 -3.18055e-015 -0.5649 -2.3158 0.4082 1.68967e-015 3.18055e-015 -0 0.9159 -9.2044 0.2193 -8.94531e-016 3.18055e-015 -1.98785e-015 0.0117 -4.1944 -0.0248 -0.0128064 0.00232179 8.52109e-005 0.0071 -2.3249 -0.0142 2.68359e-015 -3.18055e-015 -1.19271e-015 0.6113 -8.7231 -2.0637 -8.94531e-016 3.18055e-015 -1.98785e-015 -0.1927 -3.8059 -0.2383 -0.0160629 0.00300122 0.000858245 -0.1091 -2.1688 -0.1362 8.94531e-016 0 -1.98785e-015 -0.6151 -8.0947 -3.5641 -8.94531e-016 3.18055e-015 -1.98785e-015 -0.4882 -2.341 -0.6462 -0.0125499 0.00311714 0.00282164 -0.3575 -1.7167 -0.4742 6.95746e-016 0 -2.78299e-015 -1.42 -1.8761 1.4223 -8.94531e-016 3.18055e-015 -1.98785e-015 -1.1471 -3.4929 2.6334 -1.2921e-015 0 -3.18055e-015 -0.823 -2.3 1.6571 1.68967e-015 3.18055e-015 -0 -2.2603 21.606 7.4023 29.8037 4.05686 21.9679 -13.5187 -1.1334 -5.0155 -126.345 24.1607 -60.0343 0.0994 -28.0499 -0.2431 25.0354 -21.6201 7.88023 -0.0679 -23.3996 -0.1402 -44.1008 1.74925 -22.6187 -0.7932 -9.0691 2.5189 -1.59028e-015 -6.36111e-015 7.95139e-016 0.8272 -3.3923 0.5977 -4.77083e-015 -6.36111e-015 -0 0.565 -2.3158 0.4082 -3.18055e-015 -6.36111e-015 -0 -0.916 -9.2044 0.2193 -1.59028e-015 -6.36111e-015 7.95139e-016 -0.0117 -4.1944 -0.0248 0.0129692 0.002312 -9.01633e-005 -0.0071 -2.3249 -0.0142 6.36111e-015 6.36111e-015 -1.59028e-015 -0.6113 -8.7231 -2.0637 -1.59028e-015 -6.36111e-015 7.95139e-016 0.1927 -3.8059 -0.2383 0.0163444 0.00304764 -0.000882737 0.1091 -2.1688 -0.1362 1.59028e-015 -1.59028e-014 -0 0.6151 -8.0947 -3.564 -1.59028e-015 -6.36111e-015 7.95139e-016 0.4882 -2.341 -0.6462 0.0145505 0.00368071 -0.00325169 0.3574 -1.7166 -0.4742 3.18055e-015 -3.18055e-015 -0 1.4199 -1.8761 1.4221 -1.59028e-015 -6.36111e-015 7.95139e-016 1.1472 -3.4929 2.6336 -4.77083e-015 -6.36111e-015 -0 0.8229 -2.3 1.6571 -3.18055e-015 -6.36111e-015 -0 -9.412 3.9771 -0.7758 -28.9618 -43.3071 -24.0517 -0.7531 -40.938 -5.32907e-015 -167.327 25.5451 171.619 -7.10543e-015 -40.1986 1.77636e-015 -9.96415 42.1042 -6.28938 -3.55271e-015 -4.4182 9.239 -3.97569e-015 -3.18055e-015 -1.27222e-014 9.4119 3.9773 -0.7758 58.3194 -17.563 51.8961 0.7532 -40.9383 1.77636e-015 176.48 21.5651 -172.112 0 -40.1986 1.77636e-015 4.87475 41.5392 9.54662 0 -4.4182 9.239 -7.57765e-007 3.74924e-006 -4.48888e-006 
7.5151 12.2657 -21.2223 -7.67711e-007 -1.29292e-008 -67.0038 -3.55271e-015 8.7983 -4.7612 -0.00183875 1.94319 -0.538041 -3.55271e-015 8.0291 0.4195 0.0146038 3.88633 -1.07691 0 9.9351 -2.2114 0.0146031 3.88632 -1.0769 -3.55271e-015 22.3885 -0.4656 -5.58685 24.0965 0.976461 -0.0001 12.643 3.4389 0.713976 -4.93649 -0.0107138 2.2603 21.606 7.4023 -4.86029 4.25356 -39.4391 13.5163 -1.1332 -5.0146 75.9824 -17.9305 5.92241 -0.0995 -28.05 -0.2431 -43.8078 -53.8793 -32.0637 0.0679 -23.3996 -0.1402 1.63834 1.02167 -31.0016 0.7932 -9.069 2.5189 -8.15017e-015 6.36111e-015 -7.95139e-016 -0.8272 -3.3923 0.5977 -1.13307e-014 3.18055e-015 2.38542e-015 -0.5649 -2.3158 0.4082 -1.78906e-015 3.18055e-015 1.98785e-015 0.9159 -9.2044 0.2193 -8.15017e-015 6.36111e-015 -7.95139e-016 0.0117 -4.1944 -0.0248 -0.012816 0.00232335 8.34764e-005 0.0071 -2.3249 -0.0142 2.18663e-015 6.36111e-015 -1.98785e-015 0.6113 -8.7231 -2.0637 -8.15017e-015 6.36111e-015 -7.95139e-016 -0.1927 -3.8059 -0.2383 -0.0160552 0.00300325 0.000854756 -0.1091 -2.1688 -0.1362 -8.15017e-015 0 -7.95139e-016 -0.6151 -8.0947 -3.5641 -8.15017e-015 6.36111e-015 -7.95139e-016 -0.4882 -2.341 -0.6462 -0.0125192 0.00310557 0.00281233 -0.3575 -1.7167 -0.4742 3.37934e-015 0 -3.97569e-016 -1.42 -1.8761 1.4223 -8.15017e-015 6.36111e-015 -7.95139e-016 -1.1471 -3.4929 2.6334 -1.13307e-014 3.18055e-015 2.38542e-015 -0.823 -2.3 1.6571 -1.78906e-015 3.18055e-015 1.98785e-015 -2.2603 21.606 7.4023 29.7923 4.08297 21.8126 -13.5187 -1.1334 -5.0155 -130.002 26.1657 -62.9507 0.0994 -28.0499 -0.2431 25.0425 -21.6259 7.88171 -0.0679 -23.3996 -0.1402 -43.3198 1.29264 -22.5955 -0.7932 -9.0691 2.5189 2.64834e-031 6.36111e-015 -2.38542e-015 0.8272 -3.3923 0.5977 0 0 -7.95139e-016 0.565 -2.3158 0.4082 8.82781e-032 3.18055e-015 -1.59028e-015 -0.916 -9.2044 0.2193 2.64834e-031 6.36111e-015 -2.38542e-015 -0.0117 -4.1944 -0.0248 0.0129141 0.00231169 -8.93463e-005 -0.0071 -2.3249 -0.0142 -7.95139e-016 6.36111e-015 -1.59028e-015 -0.6113 -8.7231 -2.0637 2.64834e-031 6.36111e-015 -2.38542e-015 0.1927 -3.8059 -0.2383 0.0163582 0.00304357 -0.000876718 0.1091 -2.1688 -0.1362 1.59028e-015 -3.18055e-015 -2.38542e-015 0.6151 -8.0947 -3.564 2.64834e-031 6.36111e-015 -2.38542e-015 0.4882 -2.341 -0.6462 0.0145328 0.00365973 -0.00325157 0.3574 -1.7166 -0.4742 0 0 -7.95139e-016 1.4199 -1.8761 1.4221 2.64834e-031 6.36111e-015 -2.38542e-015 1.1472 -3.4929 2.6336 0 0 -7.95139e-016 0.8229 -2.3 1.6571 8.82781e-032 3.18055e-015 -1.59028e-015 -9.412 3.9771 -0.7758 -28.9617 -43.3071 -24.0516 -0.7531 -40.938 8.88178e-016 -167.327 25.5451 171.619 0 -40.1986 0 -9.96415 42.1042 -6.28937 7.10543e-015 -4.4182 9.239 5.28112e-006 2.01805e-007 6.03161e-006 9.4119 3.9773 -0.7758 58.3194 -17.563 51.8961 0.7532 -40.9383 -1.77636e-015 176.48 21.5652 -172.112 3.55271e-015 -40.1986 -3.55271e-015 4.87476 41.5392 9.54663 1.77636e-015 -4.4182 9.239 4.099e-006 -1.23019e-005 -1.52564e-005 
